<?xml version="1.0" encoding="iso-8859-1"?>
<!-- Generator: Adobe Illustrator 19.0.0, SVG Export Plug-In . SVG Version: 6.00 Build 0)  -->
<svg version="1.1" id="Capa_1" xmlns="http://www.w3.org/2000/svg" xmlns:xlink="http://www.w3.org/1999/xlink" x="0px" y="0px"
	 viewBox="0 0 503.8 503.8" style="enable-background:new 0 0 503.8 503.8;" xml:space="preserve">
<g transform="translate(0 -1)">
	<g transform="translate(1 2)">
		<path style="fill:#CFD8DC;" d="M131.039,456.757l-19.856,19.856c-23.759,23.716-62.24,23.698-85.978-0.039
			s-23.755-62.219-0.039-85.978l19.856-19.856L131.039,456.757z"/>
		<path style="fill:#37474F;" d="M254.222,390.164c-10.965,5.458-21.367,11.98-31.056,19.473c-0.504,0.336-0.923,0.755-1.427,1.091
			c-5.57,4.464-10.894,9.228-15.948,14.269l-37.267,37.267c-11.919,11.919-50.361-7.386-86.033-42.974
			c-35.588-35.672-54.893-74.114-42.974-86.033l25.096-25.096l12.17-12.171c5.166-5.163,9.989-10.658,14.437-16.451
			c7.863-10.072,14.617-20.962,20.144-32.483c3.945,21.068,25.432,54.473,57.075,86.117C200,364.732,233.07,385.967,254.222,390.164
			z"/>
		<path style="fill:#CFD8DC;" d="M221.739,410.728c-5.57,4.464-10.894,9.228-15.948,14.269l-12.17,12.171
			c-9.904,9.904-46.835-10.911-82.424-46.584c-35.672-35.588-56.488-72.519-46.584-82.424l12.17-12.171
			c5.166-5.163,9.989-10.658,14.437-16.451l1.175,0.923c-7.722,11.247,13.01,47.003,47.423,81.5
			c34.161,34.077,69.498,54.641,81.081,47.675L221.739,410.728z"/>
		<path style="fill:#D1D4D1;" d="M254.222,390.164c-10.965,5.458-21.367,11.98-31.056,19.473c-0.504,0.336-0.923,0.755-1.427,1.091
			l-0.839-1.091c-11.583,6.967-46.919-13.597-81.081-47.675c-34.413-34.497-55.145-70.253-47.423-81.5l-1.175-0.923
			c7.863-10.072,14.617-20.962,20.144-32.483c3.945,21.068,25.432,54.473,57.075,86.117C200,364.732,233.07,385.967,254.222,390.164
			z"/>
		<path style="fill:#F57C00;" d="M451.048,307.992c-32.254,38.094-78.751,61.252-128.588,64.042
			c-23.739,1.364-46.953,7.532-68.239,18.13c-10.965,5.458-21.367,11.98-31.056,19.473c-0.504,0.336-0.923,0.755-1.427,1.091
			l-0.839-1.091c-4.784,2.938-13.765,1.007-25.012-4.616c-20.733-11.476-39.631-25.989-56.068-43.058
			c-34.413-34.497-55.145-70.253-47.423-81.5l-1.175-0.923c7.863-10.072,14.617-20.962,20.144-32.483
			c10.552-22.159,16.844-46.105,18.55-70.589c5.833-78.876,61.812-145.015,138.639-163.803s157.012,14.053,198.587,81.335
			S502.219,247.686,451.048,307.992z"/>
		<path style="fill:#FEC108;" d="M417.474,307.992c-32.254,38.094-78.751,61.252-128.588,64.042
			c-23.739,1.364-46.953,7.532-68.239,18.13c-8.626,4.303-16.905,9.27-24.761,14.856c-20.733-11.476-39.631-25.989-56.068-43.058
			c-34.413-34.497-55.145-70.253-47.423-81.5l-1.175-0.923c7.863-10.072,14.617-20.962,20.144-32.483
			c10.552-22.159,16.844-46.105,18.55-70.589c6.569-88.802,76.276-159.892,164.931-168.205
			c67.842,6.129,126.616,49.549,152.41,112.595C473.05,183.903,461.565,256.068,417.474,307.992z"/>
		<path style="fill:#F3D55B;" d="M390.854,228.735c-1.102-1.936-2.928-3.353-5.077-3.939c-2.149-0.586-4.442-0.292-6.374,0.816
			l-12.573,7.187c-7.33,1.65-14.996-0.55-20.336-5.835c-5.264-5.194-7.53-12.705-6.016-19.943c0.551-2.752-0.311-5.597-2.295-7.582
			c-1.985-1.985-4.83-2.846-7.582-2.295c-7.237,1.457-14.723-0.804-19.943-6.024c-5.22-5.22-7.482-12.706-6.025-19.943
			c0.551-2.752-0.311-5.597-2.295-7.582s-4.83-2.846-7.582-2.295c-7.238,1.513-14.749-0.753-19.943-6.016
			c-5.288-5.338-7.488-13.006-5.835-20.336l7.188-12.573c2.3-4.024,0.901-9.151-3.123-11.451c-4.024-2.3-9.151-0.901-11.451,3.123
			l-7.996,13.989c-0.061,0.114-0.134,0.218-0.191,0.333L147.19,314.177c-2.3,4.024-0.901,9.151,3.123,11.451
			c4.024,2.3,9.151,0.901,11.451-3.123l94.274-164.921c6.1,11.997,18.054,19.907,31.48,20.83
			c1.433,19.171,16.673,34.411,35.844,35.844c0.681,9.278,4.679,18.001,11.262,24.574c2.853,2.769,6.12,5.076,9.683,6.841
			l-165.036,94.34c-2.603,1.488-4.215,4.251-4.229,7.25c-0.013,2.998,1.574,5.776,4.164,7.287c2.59,1.511,5.789,1.525,8.393,0.037
			l185.808-106.215c0.116-0.056,0.22-0.129,0.333-0.191l13.989-7.996c1.933-1.104,3.348-2.931,3.934-5.078
			C392.251,232.96,391.959,230.667,390.854,228.735z"/>
		<path style="fill:#37474F;" d="M254.222,390.164c-10.965,5.458-21.367,11.98-31.056,19.473c-0.504,0.336-0.923,0.755-1.427,1.091
			l-0.839-1.091c-11.583,6.967-46.919-13.597-81.081-47.675c-34.413-34.497-55.145-70.253-47.423-81.5l-1.175-0.923
			c7.863-10.072,14.617-20.962,20.144-32.483c3.945,21.068,25.432,54.473,57.075,86.117C200,364.732,233.07,385.967,254.222,390.164
			z"/>
	</g>
	<path d="M323.363,1.317C219.494-4.411,130.179,74.118,122.567,177.866c-2.666,42.909-20.668,83.43-50.722,114.172l-37.278,37.279
		c-5.855,5.854-10.151,17.912,1.212,41.797l-15.548,15.548c-26.991,27.037-26.973,70.83,0.041,97.844
		c27.014,27.014,70.807,27.033,97.844,0.041l15.543-15.543c7.968,4.238,16.764,6.689,25.776,7.182
		c5.935,0.291,11.729-1.869,16.025-5.975l37.303-37.303c29.586-29.923,69.156-47.904,111.156-50.508
		c52.149-2.837,100.814-27.074,134.5-66.984v-0.008c46.925-55.254,58.493-132.324,29.857-198.92
		C459.641,49.891,395.746,5.269,323.363,1.317z M257.038,159.585c6.1,11.997,18.054,19.907,31.48,20.83
		c1.433,19.171,16.673,34.411,35.844,35.844c0.681,9.278,4.679,18.001,11.262,24.574c2.853,2.769,6.12,5.076,9.683,6.841
		l-159.735,91.31c-3.415-3.143-6.821-6.375-10.186-9.74c-3.317-3.317-6.495-6.673-9.595-10.034L257.038,159.585z M148.738,325.299
		c0.084,0.113,0.185,0.206,0.274,0.315c4.607,5.192,9.386,10.377,14.507,15.497c4.902,4.902,9.868,9.498,14.844,13.934
		c0.263,0.263,0.545,0.507,0.842,0.731c16.685,15.36,35.484,28.252,55.825,38.282c-4.006,2.511-7.932,5.15-11.765,7.968
		c-2.128,0.018-4.164,0.87-5.672,2.372c-4.787,2.221-32.771-8.377-70.803-46.41c-35.541-35.549-49.123-64.992-46.484-70.721
		c0.883-1.348,1.348-2.927,1.336-4.539c3.137-4.27,6.09-8.672,8.858-13.205C120.513,289.848,133.39,308.631,148.738,325.299
		L148.738,325.299z M188.847,433.087c-4.966,2.088-32.846-8.543-70.73-46.426c-38.041-38.041-48.615-66.057-46.59-70.566
		l12.188-12.188c0.791-0.791,1.48-1.675,2.256-2.48c7.653,22.487,31.57,51.046,48.949,68.431
		c17.726,17.726,46.046,41.404,68.339,49.018c-0.771,0.745-1.604,1.402-2.364,2.162L188.847,433.087z M106.248,472.677
		c-20.475,20.475-53.672,20.475-74.148,0c-20.475-20.475-20.475-53.672,0-74.148l12.144-12.144
		c19.474,29.454,44.693,54.674,74.148,74.148L106.248,472.677z M139.174,453.087c-18.416-9.957-35.189-22.691-49.729-37.754
		c-38.648-38.647-47.664-69.492-43.008-74.148l10.851-10.852c7.667,22.274,31.276,50.511,48.96,68.196
		c17.684,17.684,45.917,41.299,68.186,48.97l-10.842,10.842C161.707,460.21,153.682,460.341,139.174,453.087L139.174,453.087z
		 M445.649,304.522v-0.008c-30.721,36.413-75.11,58.532-122.68,61.131c-23.728,1.411-46.959,7.396-68.414,17.625
		c-20.539-7.004-39.445-18.1-55.575-32.616l175.429-100.281c0.116-0.056,0.22-0.129,0.333-0.191l13.989-7.996
		c4.024-2.3,5.423-7.426,3.123-11.451c-2.3-4.024-7.426-5.423-11.451-3.123l-12.573,7.187c-7.33,1.65-14.996-0.55-20.336-5.835
		c-5.264-5.194-7.53-12.705-6.016-19.943c0.551-2.752-0.311-5.597-2.295-7.582c-1.985-1.985-4.83-2.846-7.582-2.295
		c-7.237,1.457-14.723-0.805-19.943-6.024c-5.22-5.22-7.481-12.706-6.025-19.942c0.551-2.752-0.311-5.597-2.295-7.582
		s-4.83-2.846-7.582-2.295c-7.238,1.513-14.749-0.753-19.943-6.016c-5.288-5.338-7.488-13.006-5.835-20.336l7.187-12.573
		c2.3-4.024,0.901-9.151-3.123-11.451c-4.024-2.3-9.151-0.901-11.451,3.123l-7.996,13.989c-0.061,0.114-0.134,0.218-0.191,0.333
		l-100.3,175.463c-14.732-16.263-25.924-35.409-32.869-56.225c10.208-22.234,16.329-46.124,18.07-70.528
		c6.683-90.958,82.461-161.324,173.664-161.262c3.148,0,6.32,0.082,9.484,0.262c49.675,2.541,95.842,26.376,126.68,65.402
		C500.246,148.762,498.795,240.883,445.649,304.522z"/>
</g>
<g>
</g>
<g>
</g>
<g>
</g>
<g>
</g>
<g>
</g>
<g>
</g>
<g>
</g>
<g>
</g>
<g>
</g>
<g>
</g>
<g>
</g>
<g>
</g>
<g>
</g>
<g>
</g>
<g>
</g>
</svg>
