<?xml version="1.0" encoding="iso-8859-1"?>
<!-- Generator: Adobe Illustrator 19.0.0, SVG Export Plug-In . SVG Version: 6.00 Build 0)  -->
<svg version="1.1" id="Capa_1" xmlns="http://www.w3.org/2000/svg" xmlns:xlink="http://www.w3.org/1999/xlink" x="0px" y="0px"
	 viewBox="0 0 512 512" style="enable-background:new 0 0 512 512;" xml:space="preserve">
<circle style="fill:#303C42;" cx="341.333" cy="53.333" r="53.333"/>
<circle style="fill:#546E7A;" cx="341.333" cy="53.333" r="32"/>
<path style="opacity:0.1;enable-background:new    ;" d="M350.503,22.832c0.882,2.923,1.499,5.961,1.499,9.168
	c0,17.646-14.354,32-32,32c-3.207,0-6.245-0.617-9.168-1.499c3.971,13.161,16.063,22.832,30.501,22.832c17.646,0,32-14.354,32-32
	C373.335,38.895,363.665,26.803,350.503,22.832z"/>
<path style="fill:#303C42;" d="M426.294,166.552c-2.104-22-20.229-38.552-42.292-38.552h-69.25
	c-19.833,0-39.208,8.094-53.125,22.219L220.377,192h-59.542c-17.646,0-32,14.354-32,32s14.354,32,32,32h62.792
	c16.958,0,33.563-5.844,46.792-16.469l9.646-7.771l7.938,269.885c0.167,5.771,4.896,10.354,10.667,10.354h85.333
	c5.625,0,10.292-4.375,10.646-10l10.042-160.667h11.313c17.646,0,32-14.354,32-32C448.002,308.25,448.002,307.406,426.294,166.552z"
	/>
<path style="fill:#546E7A;" d="M416.002,320h-21.333c-5.625,0-10.292,4.375-10.646,10l-10.042,160.667h-64.958l-8.25-280.969
	c-0.125-4.052-2.521-7.677-6.208-9.375c-3.667-1.708-8-1.156-11.146,1.375l-26.375,21.208c-9.438,7.583-21.313,11.76-33.417,11.76
	h-62.792c-5.875,0-10.667-4.781-10.667-10.667c0-5.885,4.792-10.667,10.667-10.667h64c2.854,0,5.583-1.146,7.583-3.177
	l44.396-44.958c9.938-10.083,23.771-15.865,37.938-15.865h69.25c11.042,0,20.104,8.365,21.083,19.469
	c0.021,0.229,0.042,0.458,0.083,0.688c8.417,54.583,21.083,137.177,21.5,139.844C426.669,315.219,421.877,320,416.002,320z"/>
<path style="opacity:0.1;enable-background:new    ;" d="M405.169,169.49c-0.042-0.229-0.063-0.458-0.083-0.688
	c-0.979-11.104-10.042-19.469-21.083-19.469h-32c11.042,0,20.104,8.365,21.083,19.469c0.021,0.229,0.042,0.458,0.083,0.688
	c8.417,54.583,21.083,137.177,21.5,139.844c0,5.885-4.792,10.667-10.667,10.667h-21.333c-5.625,0-10.292,4.375-10.646,10
	l-10.042,160.667h32L384.023,330c0.354-5.625,5.021-10,10.646-10h21.333c5.875,0,10.667-4.781,10.667-10.667
	C426.252,306.667,413.585,224.073,405.169,169.49z"/>
<g>
	<path style="fill:#303C42;" d="M247.648,298.917c-5.792-1.26-11.458,2.375-12.729,8.104l-40.813,183.646h-68.208L85.085,307.021
		c-1.271-5.729-6.875-9.365-12.729-8.104c-5.75,1.281-9.375,6.979-8.104,12.729l42.667,192c1.083,4.885,5.417,8.354,10.417,8.354
		h85.333c5,0,9.333-3.469,10.417-8.354l42.667-192C257.023,305.896,253.398,300.198,247.648,298.917z"/>
	<path style="fill:#303C42;" d="M128.544,376.708c1.5,4.469,5.667,7.292,10.125,7.292c1.125,0,2.25-0.177,3.375-0.552l64-21.333
		c5.583-1.854,8.604-7.896,6.75-13.49l-21.333-64c-1.875-5.604-7.875-8.604-13.5-6.74l-64,21.333
		c-5.583,1.854-8.604,7.896-6.75,13.49L128.544,376.708z"/>
</g>
<rect x="136.934" y="307.601" transform="matrix(-0.9487 0.3162 -0.3162 -0.9487 416.3268 593.78)" style="fill:#E65100;" width="46.123" height="46.123"/>
<polygon style="opacity:0.2;enable-background:new    ;" points="168.159,332.549 145.419,359.844 189.169,345.25 174.585,301.49 
	"/>
<linearGradient id="SVGID_1_" gradientUnits="userSpaceOnUse" x1="-41.3642" y1="637.1109" x2="-25.1004" y2="629.527" gradientTransform="matrix(21.3333 0 0 -21.3333 996.3334 13791.667)">
	<stop  offset="0" style="stop-color:#FFFFFF;stop-opacity:0.2"/>
	<stop  offset="1" style="stop-color:#FFFFFF;stop-opacity:0"/>
</linearGradient>
<path style="fill:url(#SVGID_1_);" d="M341.335,106.667c29.417,0,53.333-23.927,53.333-53.333S370.752,0,341.335,0
	c-29.417,0-53.333,23.927-53.333,53.333S311.919,106.667,341.335,106.667z M426.294,166.552c-2.104-22-20.229-38.552-42.292-38.552
	h-69.25c-19.833,0-39.208,8.094-53.125,22.219L220.377,192h-59.542c-17.646,0-32,14.354-32,32s14.354,32,32,32h62.792
	c16.958,0,33.563-5.844,46.792-16.469l9.646-7.771l7.938,269.885c0.167,5.771,4.896,10.354,10.667,10.354h85.333
	c5.625,0,10.292-4.375,10.646-10l10.042-160.667h11.313c17.646,0,32-14.354,32-32C448.002,308.25,448.002,307.406,426.294,166.552z
	 M247.648,298.917c-5.792-1.26-11.458,2.375-12.729,8.104l-40.813,183.646h-68.208L85.085,307.021
	c-1.271-5.729-6.875-9.365-12.729-8.104c-5.75,1.281-9.375,6.979-8.104,12.729l42.667,192c1.083,4.885,5.417,8.354,10.417,8.354
	h85.333c5,0,9.333-3.469,10.417-8.354l42.667-192C257.023,305.896,253.398,300.198,247.648,298.917z M128.544,376.708
	c1.5,4.469,5.667,7.292,10.125,7.292c1.125,0,2.25-0.177,3.375-0.552l64-21.333c5.583-1.854,8.604-7.896,6.75-13.49l-21.333-64
	c-1.875-5.604-7.875-8.604-13.5-6.74l-64,21.333c-5.583,1.854-8.604,7.896-6.75,13.49L128.544,376.708z"/>
<g>
</g>
<g>
</g>
<g>
</g>
<g>
</g>
<g>
</g>
<g>
</g>
<g>
</g>
<g>
</g>
<g>
</g>
<g>
</g>
<g>
</g>
<g>
</g>
<g>
</g>
<g>
</g>
<g>
</g>
</svg>
