<svg height="512" viewBox="0 0 60 58" width="512" xmlns="http://www.w3.org/2000/svg"><g id="011---Sewage" fill="none"><path id="Shape" d="m29 42h16c7.73 0 14-9.4 14-21s-6.27-21-14-21h-16z" fill="#547580"/><path id="Shape" d="m29 42c7.73 0 14-9.4 14-21s-6.27-21-14-21c-10.78 0-17 16.93-12.55 30.3l7.29 11.7z" fill="#3f5c6c"/><path id="Shape" d="m59 43h-58c-.55228475 0-1-.4477153-1-1s.44771525-1 1-1h58c.5522847 0 1 .4477153 1 1s-.4477153 1-1 1z" fill="#2c3e50"/><path id="Shape" d="m38.91 21c.0009914 2.3628896-.3049002 4.7159022-.91 7h-17s-.35.11-.93.36c-3.07-10.89 1.43-24.36 8.93-24.36 5.47 0 9.91 7.61 9.91 17z" fill="#2c3e50"/><path id="Shape" d="m38 28c0 .06 0 .3-.07.36-1.29 4.34-4.44 9.64-8.93 9.64-4.23.69-4.9 10.41-5 14.7-.0761111 2.9574043-2.5016403 5.3118556-5.46 5.3-3.0254252.0112792-5.496174-2.4148712-5.54-5.44v-2.56c0 1.6568542-1.3431458 3-3 3h-1c-1.65685425 0-3-1.3431458-3-3v-1c0-9.75 5.83-17 14.06-20.63.58-.25.94-.36.94-.36z" fill="#33907c"/><path id="Shape" d="m48 38h-5c-.5522847 0-1-.4477153-1-1s.4477153-1 1-1h5c.5522847 0 1 .4477153 1 1s-.4477153 1-1 1z" fill="#2c3e50"/><g fill="#81ccb8"><path id="Shape" d="m20 41c-.5522847 0-1-.4477153-1-1-.1294636-1.978213.8538224-3.8638085 2.55-4.89.4916536-.2469243 1.0904244-.050313 1.34.44.2484034.4890062.056561 1.0868406-.43 1.34-1.0148421.6950241-1.5735885 1.8852304-1.46 3.11 0 .5522847-.4477153 1-1 1z"/><path id="Shape" d="m20 47c-.5522847 0-1-.4477153-1-1v-2c0-.5522847.4477153-1 1-1s1 .4477153 1 1v2c0 .5522847-.4477153 1-1 1z"/><path id="Shape" d="m13 43c-.5522847 0-1-.4477153-1-1 .0998642-1.657175 1.0701989-3.137411 2.55-3.89.3211808-.1932607.7234705-.1906728 1.0421383.0067041.3186678.1973768.5001928.5563928.4702434.9300368s-.2663431.6991617-.6123817.8432591c-.8012192.4217393-1.343498 1.2108484-1.45 2.11 0 .5522847-.4477153 1-1 1z"/></g></g></svg>